<?xml version="1.0" ?><svg height="32" id="svg4063" version="1.1" viewBox="0 0 32 32.000001" width="32" xmlns="http://www.w3.org/2000/svg" xmlns:cc="http://creativecommons.org/ns#" xmlns:dc="http://purl.org/dc/elements/1.1/" xmlns:inkscape="http://www.inkscape.org/namespaces/inkscape" xmlns:rdf="http://www.w3.org/1999/02/22-rdf-syntax-ns#" xmlns:sodipodi="http://sodipodi.sourceforge.net/DTD/sodipodi-0.dtd" xmlns:svg="http://www.w3.org/2000/svg"><defs id="defs4065"/><g id="layer1" transform="translate(0,-1020.3621)"><g id="g7553"><path d="m 4,1043.3621 -2,0 0,-5 2,0 0,-0.1979 0,-2.6042 0,-0.1979 -2,0 0,-5 2,0 0,0 0,-3.9167 c 0,-1.1542 0.92917,-2.0833 2.08333,-2.0833 l 20.83334,0 c 1.15416,0 2.08333,0.9291 2.08333,2.0833 l 0,20.8333 c 0,1.1542 -0.92917,2.0834 -2.08333,2.0834 l -20.83334,0 C 4.92917,1049.3621 4,1048.4329 4,1047.2787 l 0,-3.9166 z" id="path5406" style="opacity:1;fill:#518ff5;fill-opacity:1;stroke:none;stroke-width:1;stroke-linecap:round;stroke-linejoin:round;stroke-miterlimit:4.0999999;stroke-dasharray:none"/><path d="m 23.48828,1028.3452 c -0.38337,0 -0.76674,0.1476 -1.06055,0.4414 l -4.00585,4.0059 a 4.5,4.5 0 0 0 -1.90821,-0.4297 4.5,4.5 0 0 0 -1.92383,0.4375 l -4.01367,-4.0137 c -0.2938,-0.2938 -0.67907,-0.4394 -1.0625,-0.4394 -0.38343,0 -0.76673,0.1456 -1.06055,0.4394 l -0.0137,0.016 c -0.5876,0.5876 -0.5876,1.5335 0,2.1211 l 4.01367,4.0137 a 4.5,4.5 0 0 0 -0.43945,1.9258 4.5,4.5 0 0 0 0.42969,1.9082 l -4.00391,4.0058 c -0.5876,0.5876 -0.5876,1.5335 0,2.1211 l 0.0137,0.014 c 0.5876,0.5876 1.53545,0.5876 2.12305,0 l 3.9961,-3.9961 a 4.5,4.5 0 0 0 1.9414,0.4473 4.5,4.5 0 0 0 1.92774,-0.4375 l 3.98632,3.9863 c 0.58761,0.5876 1.53349,0.5876 2.1211,0 l 0.0156,-0.014 c 0.5876,-0.5876 0.5876,-1.5335 0,-2.1211 l -3.98828,-3.9902 a 4.5,4.5 0 0 0 0.4375,-1.9238 4.5,4.5 0 0 0 -0.44531,-1.9434 l 3.99609,-3.9961 c 0.58761,-0.5876 0.58761,-1.5335 0,-2.1211 l -0.0156,-0.016 c -0.2938,-0.2938 -0.67718,-0.4414 -1.06055,-0.4414 z m -6.97266,6.0176 a 2.5,2.5 0 0 1 2.5,2.5 2.5,2.5 0 0 1 -2.5,2.5 2.5,2.5 0 0 1 -2.5,-2.5 2.5,2.5 0 0 1 2.5,-2.5 z" id="path5408" style="opacity:1;fill:#f9f9f9;fill-opacity:1;stroke:none;stroke-width:1;stroke-linecap:round;stroke-linejoin:round;stroke-miterlimit:4.0999999;stroke-dasharray:none"/><path d="m 17.506781,1036.8475 a 1.0048828,0.99672151 0 0 1 -1.004883,0.9968 1.0048828,0.99672151 0 0 1 -1.004883,-0.9968 1.0048828,0.99672151 0 0 1 1.004883,-0.9967 1.0048828,0.99672151 0 0 1 1.004883,0.9967 z" id="circle5420" style="opacity:1;fill:#f9f9f9;fill-opacity:1;stroke:none;stroke-width:0.99999994;stroke-linecap:round;stroke-linejoin:round;stroke-miterlimit:4.0999999;stroke-dasharray:none"/></g></g></svg>